<svg id="Layer_1" data-name="Layer 1" xmlns="http://www.w3.org/2000/svg" xmlns:xlink="http://www.w3.org/1999/xlink" viewBox="0 0 128 128">
  <defs>
    <linearGradient id="linear-gradient" x1="90.7" y1="-776.92" x2="55.48" y2="-693.92" gradientTransform="matrix(1, 0, 0, -1, 0, -680.86)" gradientUnits="userSpaceOnUse">
      <stop offset="0.17" stop-color="#ff1f51"/>
      <stop offset="0.28" stop-color="#ff3648"/>
      <stop offset="0.47" stop-color="#ff593b"/>
      <stop offset="0.65" stop-color="#ff7231"/>
      <stop offset="0.81" stop-color="#ff812b"/>
      <stop offset="0.94" stop-color="#ff8629"/>
    </linearGradient>
    <linearGradient id="linear-gradient-2" x1="61.01" y1="-704.46" x2="46.09" y2="-742.03" gradientTransform="matrix(1, 0, 0, -1, 0, -680.86)" gradientUnits="userSpaceOnUse">
      <stop offset="0.02" stop-color="#9039d0"/>
      <stop offset="0.63" stop-color="#ff1f51"/>
    </linearGradient>
    <linearGradient id="linear-gradient-3" x1="0.48" y1="-701.38" x2="82.75" y2="-805.97" gradientTransform="matrix(1, 0, 0, -1, 0, -680.86)" gradientUnits="userSpaceOnUse">
      <stop offset="0.11" stop-color="#9039d0"/>
      <stop offset="0.39" stop-color="#ff1f51"/>
      <stop offset="0.63" stop-color="#ff1f51"/>
      <stop offset="0.66" stop-color="#ff3648"/>
      <stop offset="0.71" stop-color="#ff593b"/>
      <stop offset="0.77" stop-color="#ff7231"/>
      <stop offset="0.81" stop-color="#ff812b"/>
      <stop offset="0.85" stop-color="#ff8629"/>
    </linearGradient>
  </defs>
  <title>icon_RubyMine</title>
  <g>
    <polygon points="106.24 0 69.97 13.23 40.96 0 12.8 71.25 45.23 58.03 44.8 94.29 114.35 95.57 128 25.17 106.24 0" fill="url(#linear-gradient)"/>
    <polygon points="93.01 41.39 46.93 11.09 9.81 34.13 91.31 65.71 93.01 41.39" fill="url(#linear-gradient-2)"/>
    <polygon points="53.33 124.59 101.12 118.19 85.76 88.75 96 76.8 96.85 69.12 46.93 11.09 0 22.61 0 90.03 26.88 128 53.33 124.59 53.33 124.59 53.33 124.59 53.33 124.59" fill="url(#linear-gradient-3)"/>
  </g>
  <g>
    <rect x="21.33" y="21.33" width="85.33" height="85.33"/>
    <polygon points="63.15 29.87 71.68 29.87 80.64 46.08 90.03 29.87 98.13 29.87 98.13 68.27 90.45 68.27 90.45 43.09 80.64 59.73 80.64 59.73 70.83 43.52 70.83 68.27 63.15 68.27 63.15 29.87" fill="#fff"/>
    <path d="M29.87,29.87H45.65q6.4,0,10.24,3.84c2.13,2.13,3,5.12,3,9h0a14.73,14.73,0,0,1-2.13,7.68,9.43,9.43,0,0,1-5.55,4.27l8.53,13.65h-9L43.52,56.32h-6.4V68.27H29.44V29.87h0.43ZM45.23,48.64a6.37,6.37,0,0,0,4.27-1.28,5.41,5.41,0,0,0,1.71-3.84h0a5.48,5.48,0,0,0-1.71-4.27A6.37,6.37,0,0,0,45.23,38H37.55V49.07h7.68V48.64Z" fill="#fff"/>
  </g>
  <rect x="29.87" y="92.59" width="32" height="5.12" fill="#fff"/>
</svg>
